<?xml version="1.0" encoding="UTF-8" standalone="no"?>
<!DOCTYPE svg PUBLIC "-//W3C//DTD SVG 1.1//EN"
 "http://www.w3.org/Graphics/SVG/1.1/DTD/svg11.dtd">
<!-- Generated by graphviz version 2.46.1 (20210213.1702)
 -->
<!-- Title: G Pages: 1 -->
<svg width="260pt" height="152pt"
 viewBox="0.00 0.00 260.00 152.00" xmlns="http://www.w3.org/2000/svg" xmlns:xlink="http://www.w3.org/1999/xlink">
<g id="graph0" class="graph" transform="scale(1 1) rotate(0) translate(4 148)">
<title>G</title>
<polygon fill="white" stroke="transparent" points="-4,4 -4,-148 256,-148 256,4 -4,4"/>
<!-- model -->
<g id="node1" class="node">
<title>model</title>
<polygon fill="none" stroke="black" points="162,-97 94,-97 90,-93 90,-47 158,-47 162,-51 162,-97"/>
<polyline fill="none" stroke="black" points="158,-93 90,-93 "/>
<polyline fill="none" stroke="black" points="158,-93 158,-47 "/>
<polyline fill="none" stroke="black" points="158,-93 162,-97 "/>
<text text-anchor="middle" x="126" y="-68.3" font-family="Times,serif" font-size="14.00">model</text>
</g>
<!-- Y -->
<g id="node5" class="node">
<title>Y</title>
<ellipse fill="none" stroke="black" cx="225" cy="-72" rx="27" ry="18"/>
<text text-anchor="middle" x="225" y="-68.3" font-family="Times,serif" font-size="14.00">Y</text>
</g>
<!-- model&#45;&gt;Y -->
<g id="edge4" class="edge">
<title>model&#45;&gt;Y</title>
<path fill="none" stroke="black" d="M162.02,-72C170.34,-72 179.23,-72 187.61,-72"/>
<polygon fill="black" stroke="black" points="187.86,-75.5 197.86,-72 187.86,-68.5 187.86,-75.5"/>
</g>
<!-- x1 -->
<g id="node2" class="node">
<title>x1</title>
<ellipse fill="none" stroke="black" cx="27" cy="-126" rx="27" ry="18"/>
<text text-anchor="middle" x="27" y="-122.3" font-family="Times,serif" font-size="14.00">x1</text>
</g>
<!-- x1&#45;&gt;model -->
<g id="edge1" class="edge">
<title>x1&#45;&gt;model</title>
<path fill="none" stroke="black" d="M48.57,-114.55C58.05,-109.27 69.69,-102.79 81,-96.5"/>
<polygon fill="black" stroke="black" points="82.91,-99.44 89.95,-91.51 79.51,-93.32 82.91,-99.44"/>
</g>
<!-- x2 -->
<g id="node3" class="node">
<title>x2</title>
<ellipse fill="none" stroke="black" cx="27" cy="-72" rx="27" ry="18"/>
<text text-anchor="middle" x="27" y="-68.3" font-family="Times,serif" font-size="14.00">x2</text>
</g>
<!-- x2&#45;&gt;model -->
<g id="edge2" class="edge">
<title>x2&#45;&gt;model</title>
<path fill="none" stroke="black" d="M54.25,-72C62.15,-72 71.06,-72 79.83,-72"/>
<polygon fill="black" stroke="black" points="79.98,-75.5 89.98,-72 79.98,-68.5 79.98,-75.5"/>
</g>
<!-- x3 -->
<g id="node4" class="node">
<title>x3</title>
<ellipse fill="none" stroke="black" cx="27" cy="-18" rx="27" ry="18"/>
<text text-anchor="middle" x="27" y="-14.3" font-family="Times,serif" font-size="14.00">x3</text>
</g>
<!-- x3&#45;&gt;model -->
<g id="edge3" class="edge">
<title>x3&#45;&gt;model</title>
<path fill="none" stroke="black" d="M48.57,-29.45C58.05,-34.73 69.69,-41.21 81,-47.5"/>
<polygon fill="black" stroke="black" points="79.51,-50.68 89.95,-52.49 82.91,-44.56 79.51,-50.68"/>
</g>
</g>
</svg>
